<?xml version="1.0" encoding="utf-8"?>
<svg id="master-artboard" viewBox="0 0 282.5407409667969 68.53414154052734" version="1.1" xmlns="http://www.w3.org/2000/svg" x="0px" y="0px" style="enable-background:new 0 0 1400 980;" width="282.5407409667969px" height="68.53414154052734px"><rect id="ee-background" x="0" y="0" width="282.5407409667969" height="68.53414154052734" style="fill: white; fill-opacity: 0; pointer-events: none;"/><g transform="matrix(0.41628655791282654, 0, 0, 0.41628655791282654, -7.752425460936138, -6.25408935546875)"><g id="Favicon">
<path d="M105.512 97.8706C118.478 91.0046 125.455 138.655 133.573 142.714C142.599 147.227 155.433 148.286 163.847 142.714C168.761 139.46 158.423 129.623 157.987 129.043C148.337 116.175 122.76 95.9561 124.092 86.2454C125.425 76.5347 148.994 48.4293 153.105 46.0347C153.846 45.6031 158.811 40.661 158.129 33.4778C157.237 24.08 134.325 26.6859 129.667 33.3394C125.054 39.9289 119.208 79.6821 104.197 76.3679C97.0465 69.2176 104.244 45.3605 103.3 35.2926C102.665 28.5185 78.8143 28.329 80.4457 33.5185C87.6835 56.5427 83.0347 81.7267 82.5357 104.182C82.2917 115.162 68.5458 119.277 58.3781 119.277C42.2207 119.277 47.1493 88.0981 46.6594 67.5191C46.4028 56.7432 47.4384 46.1994 46.6594 35.2926C46.1008 27.4729 32.3814 31.5763 23.2219 33.3394C22.5205 33.4744 19.8265 32.9757 20.2922 37.2457C20.7579 41.5157 22.8423 60.0203 24.8746 79.1149C27.448 103.293 25.6672 106.945 31.6883 124.233C34.9479 133.591 51.0719 135.643 65.9411 135.098C80.8103 134.553 87.3031 131.599 91.7228 124.601C96.1425 117.603 92.5455 104.736 105.512 97.8706Z" fill="#c83a3d" fill-rule="nonzero" opacity="1" stroke="none"/>
</g><g id="Primary-logo">
<path d="M228.303 36.1609C213.644 33.0513 214.692 34.6406 208.65 34.7485C204.155 34.8288 206.769 34.6886 188.09 35.0698C166.323 35.514 175.099 68.4252 174.602 83.0044C173.889 103.924 171.323 119.915 179.319 132.946C185.339 142.757 196.118 143.102 205.387 143.223C212.378 143.313 218.527 144.961 226.092 142.26C231.148 140.454 233.142 135.324 232.713 128.175C232.177 119.23 231.494 116.534 224.166 116.258C217.786 116.017 206.846 124.123 201.806 119.586C194.299 112.829 194.958 99.2575 200.688 95.6385C208.94 90.4265 226.815 96.6356 229.856 93.3693C231.754 91.3302 232.057 75.1423 227.176 73.8838C220.544 72.1739 203.586 85.4445 199.233 77.6021C195.019 70.0109 196.666 54.8128 201.583 54.5056C211.329 53.8964 217.932 57.9147 227.657 57.0306C233.845 56.4681 235.101 38.6145 228.303 36.1609Z" fill="#3d3b3b" fill-rule="nonzero" opacity="1" stroke="none"/>
<path d="M310.409 68.0407C305.523 67.4062 290.907 73.6251 278.478 72.7016C274.74 68.6819 280.064 63.9643 273.294 61.9897C269.502 60.8839 258.693 58.942 254.041 64.3874C248.259 71.1574 250.044 81.6845 250.022 82.4407C249.39 104.241 251.376 111.636 251.462 117.503C251.551 123.53 248.808 133.668 251.728 140.195C253.235 143.563 269.414 142.446 277.529 141.845C278.448 141.777 278.818 124.528 278.609 115.678C278.453 109.025 274.509 85.3258 289.755 86.8327C306.631 88.5007 306.686 106.688 305.001 115.109C303.521 122.51 303.445 137.836 305.888 141.081C308.181 144.128 326.765 144.74 329.287 141.845C332.037 138.688 332.835 123.885 332.126 119.187C330.969 111.521 331.525 107.988 331.24 92.0399C331.005 78.8802 324.059 69.8135 310.409 68.0407Z" fill="#3d3b3b" fill-rule="nonzero" opacity="1" stroke="none"/>
<path d="M380.195 62.6356C374.375 62.6367 370.668 64.2275 364.602 67.3856C350.376 74.7908 346.562 84.6517 344.789 91.8543C343.016 99.0568 343.099 112.141 344.539 117.792C345.98 123.443 355.848 137.294 367.039 140.729C378.231 144.165 394.255 149.796 404.945 137.886C415.636 125.975 415.478 153.742 406.102 157.417C396.725 161.091 388.715 160.366 378.664 157.667C368.613 154.968 363.712 147.948 357.133 153.354C350.554 158.76 354.417 170.541 366.445 175.417C378.474 180.292 385.987 179.84 401.695 178.511C417.404 177.181 424.439 169.762 428.539 161.229C432.639 152.697 431.17 84.7752 431.414 76.1356C431.747 64.3899 433.199 65.1556 423.227 63.6043C412.275 61.9007 418.886 69.9223 413.789 71.9168C407.559 74.3546 395.083 64.2749 386.883 63.1668C384.302 62.818 382.135 62.6352 380.195 62.6356ZM384.477 80.2293C396.474 80.2293 406.195 89.6173 406.195 101.167C406.195 112.716 396.474 122.073 384.477 122.073C372.479 122.073 362.758 112.716 362.758 101.167C362.758 89.6174 372.479 80.2294 384.477 80.2293Z" fill="#3d3b3b" fill-rule="nonzero" opacity="1" stroke="none"/>
<path d="M449.468 20.9576C445.497 21.3317 447.474 30.1707 447.474 35.5811C447.474 45.6551 447.474 55.7291 447.474 65.8031C447.474 66.453 447.474 67.1029 447.474 67.7529C447.474 91.8004 448.636 122.441 448.28 126.122C447.752 131.597 444.454 142.654 448.019 142.549C453.154 142.397 458.484 141.887 462.463 141.806C467.209 141.71 473.24 141.776 477.325 142.007C481.344 142.233 478.1 130.034 477.487 125.185C477.015 121.454 476.386 103.499 476.386 85.3011C476.386 65.017 476.325 59.3012 476.735 51.4696C477.071 45.0498 481.996 22.5036 478.433 22.1809C471.079 21.5151 458.601 20.0972 449.468 20.9576Z" fill="#3d3b3b" fill-rule="nonzero" opacity="1" stroke="none"/>
<path d="M493.35 68.6024C488.307 71.9464 491.397 78.5095 491.397 84.2274C491.397 98.5504 491.397 112.873 491.397 127.196C491.397 131.581 488.068 140.084 493.35 141.845C497.344 143.176 519.627 142.061 519.717 139.891C520.34 124.931 519.717 109.944 519.717 94.9696C519.717 87.0416 521.035 73.8199 511.904 68.6024C510.654 67.8876 494.886 67.5838 493.35 68.6024Z" fill="#3d3b3b" fill-rule="nonzero" opacity="1" stroke="none"/>
<path d="M505.069 22.704C492.053 22.05 479.804 51.0423 500.186 53.954C510.627 55.4457 522.917 48.1202 521.085 39.45C518.579 27.5841 513.008 23.1029 505.069 22.704Z" fill="#3d3b3b" fill-rule="nonzero" opacity="1" stroke="none"/>
<path d="M564.639 63.7196C548.512 64.7622 525.099 89.8794 545.108 107.665C551.559 113.4 567.887 108.125 569.522 117.431C572.775 135.952 548.916 119.384 546.084 119.384C543.132 119.384 529.985 129.679 531.436 134.032C538.127 154.107 609.793 147.425 596.865 108.641C591.439 92.3621 556.315 105.677 559.039 89.2034C561.763 72.7298 579.233 90.6025 586.123 87.1571C588.882 85.7777 590.913 78.822 592.052 73.8275C593.756 66.3546 580.766 62.677 564.639 63.7196Z" fill="#3d3b3b" fill-rule="nonzero" opacity="1" stroke="none"/>
<path d="M629.381 28.5269C613.961 24.1213 609.561 38.2174 609.561 43.2118C609.561 70.23 609.561 97.2483 609.561 124.266C609.561 128.929 605.678 141.396 611.514 141.845C619.303 142.444 627.187 142.707 634.951 141.845C640.218 141.259 638.581 131.472 637.881 126.22C635.985 112.001 631.364 87.1571 653.506 87.1571C663.053 87.1571 660.769 107.719 661.319 120.36C661.575 126.266 656.389 141.315 663.272 141.845C671.061 142.444 678.944 142.707 686.709 141.845C692.293 141.224 689.689 119.504 689.639 113.524C689.563 104.456 691.051 92.37 687.686 82.2743C680.721 61.3792 652.756 59.5865 638.858 73.4852C634.369 70.4925 644.801 32.9326 629.381 28.5269Z" fill="#3d3b3b" fill-rule="nonzero" opacity="1" stroke="none"/>
</g></g></svg>