<svg xmlns="http://www.w3.org/2000/svg" id="logo-master-artboard" version="1.1" x="0" y="0" width="291" height="241"><defs><radialGradient id="logo-gradient-0" gradientUnits="objectBoundingBox" cx=".5" cy=".5" r=".5"><stop offset="0" stop-color="#fff"/><stop offset="1" stop-color="#ccc"/></radialGradient><style id="logo-ee-google-fonts">@import url(https://fonts.googleapis.com/css?family=Rubik:300,300italic,400,400italic,500,500italic,700,700italic,900,900italic);</style></defs><path id="logo-ee-background" fill="#fff" fill-opacity="0" pointer-events="none" d="M0 0h291.401v241.303H0z"/><g transform="matrix(2 0 0 2 -39.87 -53.323)"><path d="M105.512 97.87c12.966-6.865 19.943 40.785 28.061 44.844 9.026 4.513 21.86 5.572 30.274 0 4.914-3.254-5.424-13.091-5.86-13.671-9.65-12.868-35.227-33.087-33.895-42.798 1.333-9.71 24.902-37.816 29.013-40.21.741-.432 5.706-5.374 5.024-12.557-.892-9.398-23.804-6.792-28.462-.139-4.613 6.59-10.459 46.343-25.47 43.029-7.15-7.15.047-31.007-.897-41.075-.635-6.774-24.486-6.964-22.854-1.774 7.237 23.024 2.589 48.208 2.09 70.663-.244 10.98-13.99 15.095-24.158 15.095-16.157 0-11.229-31.179-11.719-51.758-.256-10.776.78-21.32 0-32.226-.558-7.82-14.278-3.717-23.437-1.954-.702.135-3.396-.363-2.93 3.907.466 4.27 2.55 22.774 4.583 41.869 2.573 24.178.792 27.83 6.813 45.118 3.26 9.358 19.384 11.41 34.253 10.865 14.87-.545 21.362-3.499 25.782-10.497 4.42-6.998.823-19.865 13.789-26.73z" fill="#c83a3d" id="logo-Favicon"/></g></svg>